<svg width="20" height="16" viewBox="0 0 20 16" fill="none" xmlns="http://www.w3.org/2000/svg">
<path d="M0 1.87776V1.33139C0 0.978283 0.131696 0.639639 0.366117 0.389955C0.600537 0.140271 0.918479 0 1.25 0L18.75 0C19.0815 0 19.3995 0.140271 19.6339 0.389955C19.8683 0.639639 20 0.978283 20 1.33139V1.87776L10 8.53471L0 1.87776ZM10.3313 9.88441C10.2319 9.95046 10.1171 9.98547 10 9.98547C9.88288 9.98547 9.76811 9.95046 9.66875 9.88441L0 3.4478V14.6453C0 14.9984 0.131696 15.337 0.366117 15.5867C0.600537 15.8364 0.918479 15.9767 1.25 15.9767H18.75C19.0815 15.9767 19.3995 15.8364 19.6339 15.5867C19.8683 15.337 20 14.9984 20 14.6453V3.4478L10.3313 9.88441Z" fill="#E3E3E3"/>
</svg>
