<svg width="16" height="16" viewBox="0 0 16 16" fill="none" xmlns="http://www.w3.org/2000/svg">
<mask id="mask0_1644_233" style="mask-type:alpha" maskUnits="userSpaceOnUse" x="0" y="0" width="16" height="16">
<rect width="16" height="16" fill="#D9D9D9"/>
</mask>
<g mask="url(#mask0_1644_233)">
<path d="M8 13.9998C6.32222 13.9998 4.90267 13.4191 3.74133 12.2578C2.58044 11.0969 2 9.67755 2 7.99977C2 6.46644 2.5 5.13577 3.5 4.00777C4.5 2.88022 5.77778 2.22199 7.33333 2.03311C7.61111 1.99977 7.82778 2.09977 7.98333 2.33311C8.13889 2.56644 8.13333 2.81088 7.96667 3.06644C7.77778 3.35533 7.636 3.66088 7.54133 3.98311C7.44711 4.30533 7.4 4.64422 7.4 4.99977C7.4 5.99977 7.75 6.84977 8.45 7.54977C9.15 8.24977 10 8.59977 11 8.59977C11.3444 8.59977 11.6862 8.54977 12.0253 8.44977C12.364 8.34977 12.6667 8.21088 12.9333 8.03311C13.1667 7.87755 13.4056 7.86911 13.65 8.00777C13.8944 8.14688 14 8.36644 13.9667 8.66644C13.8111 10.1998 13.1584 11.472 12.0087 12.4831C10.8584 13.4942 9.52222 13.9998 8 13.9998Z" fill="white"/>
</g>
</svg>
